PathFileType	4	(x/y/z)	TRC_MarkerData\Passive\Passive_Pref0009.trc
DataRate	CameraRate	NumFrames	NumMarkers	Units	OrigDataRate	OrigDataStartFrame	OrigNumFrames
240	240	10	50	mm	240	230	262
Frame#	Time	R_AC			L_AC			HEAD			STERN			L_IC			R_IC			L_ASIS			R_ASIS			L_GT			R_GT			L_PSIS			R_PSIS			SACRAL			L_LAT_KNEE			L_MED_KNEE			R_LAT_KNEE			R_MED_KNEE			L_LAT_ANK			L_MED_ANK			R_LAT_ANK			R_MED_ANK			L_THIGH_PROX_POST			L_THIGH_PROX_ANT			L_THIGH_DIST_ANT			L_THIGH_DIST_POST			R_THIGH_PROX_POST			R_THIGH_PROX_ANT			R_THIGH_DIST_ANT			R_THIGH_DIST_POST			L_SHANK_PROX_POST			L_SHANK_PROX_ANT			L_SHANK_DIST_ANT			L_SHANK_DIST_POST			R_SHANK_PROX_POST			R_SHANK_PROX_ANT			R_SHANK_DIST_ANT			R_SHANK_DIST_POST			L_HEEL_LAT			L_HEEL_SUP			L_HEEL_MED			R_HEEL_LAT			R_HEEL_SUP			R_HEEL_MED			L_1ST_MET			L_5TH_MET			L_TOE			R_1ST_MET			R_5TH_MET			R_TOE			C7			
		X1	Y1	Z1	X2	Y2	Z2	X3	Y3	Z3	X4	Y4	Z4	X5	Y5	Z5	X6	Y6	Z6	X7	Y7	Z7	X8	Y8	Z8	X9	Y9	Z9	X10	Y10	Z10	X11	Y11	Z11	X12	Y12	Z12	X13	Y13	Z13	X14	Y14	Z14	X15	Y15	Z15	X16	Y16	Z16	X17	Y17	Z17	X18	Y18	Z18	X19	Y19	Z19	X20	Y20	Z20	X21	Y21	Z21	X22	Y22	Z22	X23	Y23	Z23	X24	Y24	Z24	X25	Y25	Z25	X26	Y26	Z26	X27	Y27	Z27	X28	Y28	Z28	X29	Y29	Z29	X30	Y30	Z30	X31	Y31	Z31	X32	Y32	Z32	X33	Y33	Z33	X34	Y34	Z34	X35	Y35	Z35	X36	Y36	Z36	X37	Y37	Z37	X38	Y38	Z38	X39	Y39	Z39	X40	Y40	Z40	X41	Y41	Z41	X42	Y42	Z42	X43	Y43	Z43	X44	Y44	Z44	X45	Y45	Z45	X46	Y46	Z46	X47	Y47	Z47	X48	Y48	Z48	X49	Y49	Z49	X50	Y50	Z50	

230	0.95782	491.88	1522.3	395.81	508.58	1527.8	41.65	517.06	1808.8	214.47	540.28	1468.9	222.22	454.48	1101.2	58.071	466.1	1117.9	382.25	515.26	1023.4	81.859	534.23	1023.7	354.11	448.83	937.32	27.401	450.34	954.11	411.89	338.16	1085.3	175.84	342.06	1092.9	267.52	323.68	1057.9	223.1	615.63	568.31	80.481	610.25	549.61	216.79	376.49	545.21	337.19	365.74	566.42	206.38	628.53	148.69	69.823	643.51	142.91	138.79	234.88	136.19	285.79	248.79	159.27	198.36	512.63	772.64	60.343	565.33	796.8	82.127	594.69	730.19	96.652	544.06	705.09	74.15	375.36	753.11	373.58	443.22	750.11	375.83	433.09	676.62	360.35	365.94	680.53	356.18	607.41	481.71	78.808	653.25	494.86	97.322	648.78	435.77	99.032	592.12	420.1	99.169	271.56	400.27	334.77	338	384.7	331.25	315.9	313.21	315.43	247.35	331.32	316.02	558.62	68.285	84.202	558.25	91.851	120.64	573.99	61.864	149.29	151.22	85.795	259.8	153.56	114.36	226.43	163.06	86.037	193.35	777.59	96.67	121.55	726.46	85.249	23.403	827.07	113.04	76.863	366.27	54.384	202.59	331.25	49.199	307.81	417.72	48.843	253.66	425.03	1585.3	218.64
231	0.96201	497.45	1522	395.66	514.5	1527.3	41.531	522.93	1808.2	213.95	545.89	1468.3	222.17	460.76	1100.8	57.762	471.15	1117.3	381.9	521.62	1023.1	81.753	539.34	1023.2	354.04	455.44	936.85	26.823	454.96	953.57	411.48	344.21	1084.7	174.93	347.57	1092.2	266.65	329.61	1057.2	222.18	621.03	567.17	80.139	614.22	548.3	216.39	378.81	545.31	336.78	368.54	566.43	205.89	645.05	147.96	69.788	659.35	142.55	139.01	235.59	136.86	285.24	249.54	159.74	197.8	517.88	771.8	59.897	569.87	795.46	82.07	598.98	728.55	96.398	548.57	704.04	73.825	378.82	753.33	372.84	446.65	749.91	375.32	436.15	676.5	359.87	369.03	680.8	355.46	615.09	480.33	78.404	660.33	494.7	97.515	657.38	435.48	99.199	601.14	418.33	98.576	273.25	400.76	334.32	339.65	384.9	330.84	317.27	313.54	314.99	248.79	331.92	315.53	577.12	65.637	83.249	575.56	89.113	119.6	591.76	59.608	148.52	151.64	86.87	259.49	154.14	115.32	226.04	163.49	86.837	193.05	794.83	99.809	123.58	745.32	87.076	24.762	844.44	117.48	79.609	366.43	54.265	202.47	331.43	49.406	307.64	417.87	48.664	253.57	430.72	1584.8	218.41
232	0.96619	503.05	1521.6	395.5	520.44	1526.7	41.399	528.81	1807.5	213.43	551.51	1467.7	222.11	467.04	1100.4	57.46	476.21	1116.6	381.55	528.02	1022.8	81.649	544.48	1022.5	353.97	462.07	936.31	26.24	459.6	953	411.07	350.29	1083.9	174.01	353.11	1091.5	265.79	335.61	1056.4	221.26	626.46	565.94	79.758	618.18	546.88	215.92	381.14	545.4	336.38	371.41	566.41	205.4	661.31	147.39	69.842	674.89	142.33	139.32	236.31	137.51	284.71	250.29	160.22	197.25	523.15	770.89	59.39	574.44	794.03	81.936	603.4	726.83	96.008	553.04	702.91	73.441	382.3	753.51	372.1	450.11	749.68	374.84	439.24	676.34	359.42	372.15	681.05	354.74	622.73	478.94	77.983	667.36	494.47	97.697	665.86	435.17	99.374	610.09	416.58	97.975	274.95	401.24	333.87	341.32	385.09	330.43	318.64	313.85	314.56	250.25	332.52	315.04	595.37	63.256	82.396	592.58	86.629	118.65	609.23	57.596	147.86	152.06	87.94	259.17	154.72	116.28	225.65	163.93	87.635	192.74	811.64	103.04	125.73	763.81	89.059	26.264	861.37	121.98	82.509	366.59	54.147	202.37	331.61	49.613	307.46	418.02	48.492	253.48	436.41	1584.2	218.17
233	0.97037	508.68	1521.1	395.32	526.39	1526	41.254	534.71	1806.7	212.92	557.14	1467	222.03	473.33	1100	57.164	481.26	1115.8	381.2	534.46	1022.4	81.544	549.64	1021.8	353.91	468.74	935.7	25.654	464.26	952.37	410.67	356.41	1083.1	173.08	358.68	1090.6	264.93	341.65	1055.6	220.33	631.91	564.64	79.341	622.15	545.36	215.39	383.51	545.47	335.99	374.35	566.36	204.93	677.29	146.99	69.985	690.12	142.26	139.72	237.04	138.15	284.17	251.05	160.68	196.71	528.46	769.9	58.821	579.08	792.51	81.723	607.97	725.02	95.484	557.5	701.69	73	385.8	753.67	371.36	453.58	749.43	374.38	442.35	676.17	359	375.3	681.27	354.04	630.34	477.52	77.547	674.32	494.17	97.865	674.24	434.84	99.557	618.98	414.86	97.368	276.66	401.71	333.42	343	385.26	330.04	320.03	314.16	314.14	251.72	333.11	314.55	613.32	61.13	81.646	609.28	84.391	117.78	626.38	55.815	147.29	152.5	89.008	258.86	155.31	117.23	225.26	164.37	88.434	192.42	828	106.32	128.01	781.91	91.173	27.896	877.84	126.52	85.537	366.74	54.03	202.27	331.79	49.818	307.3	418.15	48.327	253.4	442.11	1583.5	217.91
234	0.97455	514.33	1520.6	395.13	532.35	1525.3	41.095	540.63	1805.9	212.42	562.78	1466.2	221.94	479.62	1099.4	56.871	486.33	1115	380.85	540.96	1021.9	81.437	554.83	1021.1	353.87	475.44	935.04	25.065	468.96	951.7	410.28	362.55	1082.2	172.16	364.29	1089.7	264.08	347.74	1054.6	219.41	637.4	563.29	78.891	626.15	543.76	214.82	385.91	545.51	335.62	377.36	566.28	204.47	692.97	146.72	70.214	705.02	142.31	140.19	237.78	138.77	283.64	251.83	161.15	196.18	533.82	768.86	58.192	583.85	790.94	81.431	612.73	723.14	94.832	561.97	700.41	72.502	389.34	753.79	370.63	457.09	749.14	373.95	445.49	675.96	358.6	378.48	681.47	353.34	637.92	476.09	77.099	681.23	493.82	98.018	682.52	434.49	99.745	627.79	413.17	96.76	278.4	402.17	332.97	344.71	385.41	329.65	321.43	314.45	313.74	253.21	333.7	314.06	630.94	59.247	81.001	625.62	82.383	117.01	643.18	54.249	146.83	152.94	90.075	258.55	155.9	118.19	224.87	164.82	89.238	192.11	843.89	109.65	130.38	799.57	93.394	29.644	893.82	131.06	88.671	366.89	53.914	202.17	331.97	50.019	307.13	418.27	48.167	253.33	447.82	1582.8	217.63
235	0.97874	520.01	1520	394.92	538.32	1524.5	40.922	546.57	1805	211.92	568.44	1465.4	221.83	485.92	1098.8	56.581	491.41	1114.2	380.5	547.5	1021.4	81.325	560.05	1020.3	353.84	482.17	934.33	24.474	473.68	951	409.89	368.72	1081.2	171.23	369.94	1088.8	263.22	353.85	1053.6	218.47	642.92	561.88	78.413	630.19	542.09	214.19	388.35	545.54	335.25	380.43	566.17	204.02	708.31	146.58	70.525	719.56	142.45	140.74	238.54	139.38	283.13	252.61	161.62	195.66	539.27	767.77	57.505	588.79	789.33	81.062	617.71	721.22	94.063	566.47	699.06	71.95	392.91	753.88	369.9	460.63	748.82	373.54	448.67	675.72	358.22	381.7	681.63	352.64	645.47	474.66	76.642	688.1	493.4	98.156	690.69	434.12	99.936	636.52	411.51	96.152	280.17	402.63	332.54	346.45	385.55	329.29	322.85	314.74	313.34	254.72	334.3	313.57	648.19	57.589	80.46	641.58	80.59	116.32	659.59	52.88	146.46	153.39	91.147	258.25	156.51	119.15	224.48	165.28	90.053	191.8	859.3	112.97	132.83	816.78	95.692	31.494	909.3	135.57	91.884	367.03	53.8	202.09	332.14	50.214	306.96	418.39	48.014	253.27	453.55	1582	217.33
236	0.98292	525.73	1519.3	394.69	544.31	1523.7	40.734	552.53	1804.1	211.42	574.12	1464.6	221.71	492.23	1098.1	56.291	496.51	1113.2	380.16	554.09	1020.8	81.206	565.29	1019.4	353.81	488.94	933.56	23.881	478.43	950.25	409.51	374.93	1080.2	170.29	375.63	1087.7	262.36	360.01	1052.5	217.53	648.49	560.42	77.909	634.28	540.35	213.52	390.83	545.54	334.91	383.58	566.03	203.59	723.3	146.53	70.913	733.72	142.68	141.35	239.31	139.98	282.62	253.42	162.09	195.16	544.82	766.64	56.763	593.92	787.7	80.619	622.93	719.28	93.19	571.04	697.66	71.344	396.53	753.94	369.19	464.21	748.47	373.16	451.89	675.46	357.87	384.97	681.77	351.96	652.97	473.23	76.179	694.92	492.93	98.277	698.75	433.73	100.13	645.17	409.89	95.547	281.97	403.09	332.1	348.21	385.69	328.94	324.29	315.02	312.97	256.27	334.89	313.09	665.04	56.138	80.02	657.14	78.996	115.72	675.59	51.689	146.18	153.86	92.227	257.95	157.13	120.12	224.1	165.75	90.88	191.49	874.21	116.27	135.34	833.5	98.037	33.429	924.28	140.01	95.154	367.15	53.686	202.02	332.31	50.402	306.8	418.49	47.865	253.23	459.3	1581.1	217.01
237	0.9871	531.49	1518.6	394.45	550.31	1522.8	40.531	558.51	1803.1	210.93	579.82	1463.6	221.58	498.56	1097.4	55.998	501.63	1112.3	379.81	560.73	1020.2	81.081	570.58	1018.5	353.8	495.75	932.74	23.288	483.22	949.47	409.13	381.16	1079	169.35	381.38	1086.6	261.5	366.19	1051.4	216.57	654.12	558.94	77.385	638.44	538.56	212.82	393.36	545.53	334.58	386.81	565.87	203.18	737.92	146.58	71.37	747.49	142.96	142.01	240.11	140.57	282.13	254.24	162.57	194.67	550.48	765.47	55.969	599.28	786.06	80.108	628.4	717.32	92.228	575.71	696.21	70.686	400.19	753.97	368.47	467.84	748.1	372.81	455.16	675.17	357.55	388.29	681.88	351.28	660.45	471.8	75.713	701.71	492.41	98.382	706.72	433.31	100.32	653.73	408.3	94.948	283.8	403.54	331.68	350.01	385.81	328.61	325.76	315.3	312.6	257.85	335.48	312.6	681.46	54.874	79.675	672.28	77.58	115.21	691.16	50.657	145.99	154.34	93.317	257.66	157.76	121.11	223.72	166.22	91.725	191.18	888.61	119.51	137.89	849.72	100.4	35.433	938.73	144.35	98.456	367.28	53.573	201.95	332.47	50.579	306.63	418.58	47.722	253.2	465.06	1580.2	216.68
238	0.99128	537.29	1517.8	394.2	556.32	1521.8	40.313	564.52	1802	210.43	585.55	1462.6	221.43	504.9	1096.6	55.7	506.77	1111.2	379.46	567.42	1019.5	80.948	575.9	1017.6	353.79	502.6	931.87	22.695	488.04	948.65	408.76	387.43	1077.9	168.41	387.18	1085.5	260.62	372.41	1050.2	215.6	659.8	557.43	76.845	642.68	536.72	212.08	395.96	545.5	334.25	390.11	565.67	202.78	752.14	146.68	71.887	760.85	143.29	142.7	240.93	141.16	281.66	255.08	163.05	194.2	556.28	764.27	55.129	604.88	784.42	79.533	634.13	715.37	91.196	580.52	694.72	69.978	403.91	753.98	367.77	471.52	747.69	372.48	458.49	674.85	357.25	391.66	681.96	350.61	667.88	470.38	75.247	708.47	491.84	98.472	714.58	432.86	100.5	662.2	406.75	94.357	285.68	403.99	331.26	351.85	385.92	328.29	327.26	315.56	312.26	259.46	336.08	312.13	697.41	53.776	79.414	686.98	76.323	114.77	706.26	49.762	145.87	154.83	94.422	257.38	158.42	122.11	223.35	166.72	92.591	190.89	902.48	122.65	140.46	865.4	102.74	37.489	952.65	148.55	101.77	367.39	53.461	201.89	332.63	50.746	306.47	418.65	47.585	253.18	470.85	1579.2	216.33
239	0.99547	543.13	1517	393.92	562.35	1520.8	40.08	570.56	1800.9	209.94	591.31	1461.6	221.26	511.26	1095.7	55.395	511.94	1110.1	379.11	574.14	1018.8	80.808	581.27	1016.6	353.79	509.49	930.96	22.103	492.91	947.8	408.39	393.73	1076.6	167.46	393.05	1084.2	259.73	378.65	1048.9	214.63	665.54	555.91	76.296	647.01	534.86	211.31	398.61	545.45	333.95	393.49	565.45	202.39	765.94	146.82	72.454	773.78	143.62	143.43	241.76	141.74	281.21	255.95	163.54	193.75	562.22	763.05	54.25	610.73	782.79	78.901	640.12	713.45	90.114	585.5	693.21	69.221	407.69	753.95	367.07	475.26	747.26	372.18	461.88	674.49	356.97	395.09	682.01	349.95	675.28	468.97	74.784	715.2	491.22	98.549	722.36	432.38	100.68	670.58	405.24	93.775	287.6	404.44	330.85	353.74	386.03	327.99	328.8	315.82	311.93	261.11	336.68	311.66	712.88	52.822	79.228	701.21	75.204	114.39	720.88	48.982	145.82	155.35	95.544	257.1	159.09	123.12	222.99	167.23	93.481	190.59	915.84	125.67	143.03	880.54	105.04	39.577	966.04	152.57	105.07	367.49	53.35	201.84	332.77	50.901	306.3	418.72	47.452	253.17	476.67	1578.2	215.98
